# xmcd
# 
# Track frame offsets:
#     150
#     11760
#     28167
#     45450
#     60370
#     76567
#     96495
#     109787
#     127867
#     143795
#     157422
# 
# Disc length: 2347
# 
# Revision: 11
# Processed by: cddbd v1.5.2PL0 Copyright (c) Steve Scherf et al.
# Submitted via: fre:ac v1.0.27
# 
DISCID=8809290b
DTITLE=EMMYLOU HARRIS, DOLLY PARTON, LINDA RONSTADT - Trio
DYEAR=1987
DGENRE=Country
TTITLE0=The Pain Of Loving You
TTITLE1=Making Plans
TTITLE2=To Know Him Is to Love Him
TTITLE3=Hobo's Meditation
TTITLE4=Wildflowers
TTITLE5=Telling Me Lies
TTITLE6=My Dear Companion
TTITLE7=Those Memories Of You
TTITLE8=I've Had Enough
TTITLE9=Rosewood Casket
TTITLE10=Farther Along
EXTD=
EXTT0=
EXTT1=
EXTT2=
EXTT3=
EXTT4=
EXTT5=
EXTT6=
EXTT7=
EXTT8=
EXTT9=
EXTT10=
PLAYORDER=
